<svg width="54" height="53" viewBox="0 0 54 53" fill="none" xmlns="http://www.w3.org/2000/svg">
<circle opacity="0.1" cx="26.9282" cy="26.5" r="26.5" fill="#535C64"/>
<path d="M19.3854 19.7047C18.926 19.7038 18.4767 19.8393 18.0943 20.094C17.712 20.3487 17.4138 20.7111 17.2376 21.1354C17.0614 21.5597 17.015 22.0267 17.1044 22.4774C17.1939 22.928 17.415 23.342 17.7399 23.6668C18.0647 23.9917 18.4787 24.2128 18.9293 24.3022C19.3799 24.3916 19.847 24.3453 20.2712 24.1691C20.6955 23.9928 21.058 23.6947 21.3126 23.3123C21.5673 22.93 21.7028 22.4806 21.7019 22.0212C21.7008 21.4072 21.4563 20.8187 21.0222 20.3845C20.588 19.9503 19.9994 19.7059 19.3854 19.7047ZM19.3854 21.9813C19.3744 21.9812 19.3637 21.9853 19.3555 21.9927C19.3473 22 19.3422 22.0102 19.3411 22.0212H19.4254L19.3854 21.9813ZM19.3854 21.9813C19.3744 21.9812 19.3637 21.9853 19.3555 21.9927C19.3473 22 19.3422 22.0102 19.3411 22.0212H19.4254L19.3854 21.9813Z" fill="white"/>
<path d="M39.9853 15.0051C39.8967 14.9983 39.8077 14.9983 39.719 15.0051H13.7404C13.1863 15.0039 12.6511 15.206 12.236 15.5731C11.9795 15.7917 11.7742 16.064 11.6346 16.3708C11.4951 16.6775 11.4246 17.0112 11.4284 17.3482V36.6613H13.6472V39H39.7146C40.3294 38.9977 40.9181 38.7515 41.3516 38.3155C41.785 37.8795 42.0278 37.2894 42.0267 36.6746V17.3127C42.0275 16.745 41.8203 16.1966 41.4441 15.7713C41.0679 15.3461 40.5489 15.0735 39.9853 15.0051ZM19.3453 36.688C20.1352 35.4898 21.3911 33.5815 23.4103 30.4751C23.5023 30.3278 23.6062 30.1883 23.7209 30.0579C24.0697 29.6509 24.4992 29.3207 24.9822 29.0884C25.4653 28.856 25.9914 28.7266 26.5271 28.7082C27.0628 28.6899 27.5965 28.783 28.0943 28.9817C28.5921 29.1805 29.0432 29.4805 29.419 29.8627C29.499 29.9412 29.5746 30.0242 29.6454 30.1112L35.1038 36.688H19.3453ZM28.9974 24.8524C28.9983 24.2595 29.1749 23.6801 29.5049 23.1875C29.8348 22.6948 30.3034 22.311 30.8514 22.0845C31.3994 21.858 32.0022 21.799 32.5837 21.9148C33.1652 22.0307 33.6993 22.3164 34.1186 22.7356C34.5379 23.1549 34.8235 23.689 34.9394 24.2706C35.0553 24.8521 34.9963 25.4549 34.7698 26.0029C34.5433 26.5508 34.1594 27.0194 33.6668 27.3494C33.1741 27.6794 32.5947 27.8559 32.0018 27.8568C31.7822 27.8566 31.5633 27.8313 31.3494 27.7814C30.9519 27.6932 30.5766 27.5245 30.2469 27.2856C29.9172 27.0467 29.6399 26.7427 29.4323 26.3924C29.1475 25.9293 28.9969 25.3961 28.9974 24.8524ZM39.7545 36.6391C39.7545 36.6613 39.7545 36.688 39.719 36.688H38.0726L32.6009 30.0979C33.5947 29.9838 34.5357 29.5895 35.314 28.961C36.0923 28.3325 36.6759 27.4957 36.9968 26.5481C37.3176 25.6006 37.3625 24.5813 37.1261 23.6092C36.8898 22.6372 36.382 21.7523 35.6619 21.0579C34.9418 20.3634 34.0391 19.8879 33.0592 19.687C32.0792 19.486 31.0622 19.5677 30.1269 19.9226C29.1916 20.2776 28.3764 20.8911 27.7765 21.6917C27.1766 22.4922 26.8167 23.4468 26.7386 24.4442C26.7386 24.5773 26.7386 24.7149 26.7386 24.8524C26.7349 25.3945 26.8173 25.9338 26.9827 26.4501C26.761 26.4367 26.5387 26.4367 26.317 26.4501C25.3521 26.5012 24.4131 26.781 23.5775 27.2663C22.7419 27.7516 22.0335 28.4286 21.5109 29.2414C21.471 29.308 21.4266 29.3701 21.3867 29.4322C18.2803 34.256 17.0687 36.0356 16.6161 36.688H13.7049V17.3127C13.7043 17.3075 13.7047 17.3021 13.7062 17.2971C13.7077 17.292 13.7101 17.2872 13.7134 17.2831C13.7167 17.279 13.7208 17.2756 13.7254 17.273C13.7301 17.2705 13.7352 17.2689 13.7404 17.2683H39.7368C39.7421 17.2689 39.7471 17.2705 39.7518 17.273C39.7564 17.2756 39.7605 17.279 39.7638 17.2831C39.7671 17.2872 39.7695 17.292 39.771 17.2971C39.7725 17.3021 39.7729 17.3075 39.7723 17.3127L39.7545 36.6391Z" fill="white"/>
</svg>
